<svg width="501" height="501" viewBox="0 0 501 501" fill="none" xmlns="http://www.w3.org/2000/svg">
<path d="M500.154 250.91C500.154 388.981 388.225 500.91 250.154 500.91C112.083 500.91 0.153809 388.981 0.153809 250.91C0.153809 112.839 112.083 0.910156 250.154 0.910156C388.225 0.910156 500.154 112.839 500.154 250.91ZM40.0617 250.91C40.0617 366.941 134.123 461.002 250.154 461.002C366.184 461.002 460.246 366.941 460.246 250.91C460.246 134.879 366.184 40.8181 250.154 40.8181C134.123 40.8181 40.0617 134.879 40.0617 250.91Z" fill="white"/>
<path d="M136.184 197.039C135.705 189.643 141.328 183.267 148.726 182.818L165.312 181.811L166.067 181.765L168.106 181.623L168.204 181.617L192.058 179.955L248.62 176.29L253.055 176.003L348.906 169.793C356.295 169.314 362.674 174.917 363.153 182.306C363.632 189.696 358.029 196.075 350.64 196.553L150.402 209.527C143.027 210.005 136.662 204.414 136.184 197.039Z" fill="white"/>
<path d="M182.727 184.157C175.79 184.628 171.988 188.923 169.756 186.786C168.788 185.86 168.317 183.977 168.106 181.623C168.031 180.784 167.989 179.885 167.969 178.949C167.917 176.455 168.023 173.694 168.086 171.084C168.096 170.64 168.114 170.212 168.138 169.793C169.599 144.605 188.009 123.641 212.797 118.94C216.116 118.311 220.097 118.053 228.06 117.536L294.128 113.252C309.315 112.267 322.659 121.83 327.187 135.531C328.381 139.144 328.979 140.951 327.787 143.479C326.595 146.007 324.297 146.899 319.703 148.683L252.983 174.596C252.983 174.596 248.994 176.173 248.62 176.29L247.659 176.664L240.026 179.628C239.033 180.014 238.537 180.207 238.019 180.322C237.501 180.437 236.969 180.474 235.906 180.546L182.727 184.157Z" fill="white"/>
<path d="M248.62 176.29L253.055 176.003C252.328 175.674 252.026 175.407 252.983 174.596C252.983 174.596 248.994 176.173 248.62 176.29Z" fill="white"/>
<path d="M168.106 181.623C168.031 180.784 167.989 179.885 167.969 178.949C168.246 181.254 167.764 181.971 165.312 181.811L166.067 181.765L168.106 181.623Z" fill="white"/>
<path fill-rule="evenodd" clip-rule="evenodd" d="M361.655 307.547C361.655 365.553 311.734 412.575 250.154 412.575C188.574 412.575 138.653 365.553 138.653 307.547C138.653 249.541 193.325 198.562 250.154 242.604C307.73 196.537 361.655 249.541 361.655 307.547ZM295.806 318.839C313.454 318.839 327.76 304.533 327.76 286.885C327.76 269.237 313.454 254.931 295.806 254.931C278.158 254.931 263.852 269.237 263.852 286.885C263.852 304.533 278.158 318.839 295.806 318.839ZM204.502 318.839C222.149 318.839 236.456 304.533 236.456 286.885C236.456 269.237 222.149 254.931 204.502 254.931C186.854 254.931 172.548 269.237 172.548 286.885C172.548 304.533 186.854 318.839 204.502 318.839ZM311.976 363.927C263.337 402.424 212.03 381.881 188.329 363.856C186.856 362.736 187.683 360.492 189.534 360.492H310.755C312.608 360.492 313.428 362.777 311.976 363.927Z" fill="white"/>
<path d="M376.958 327.391C386.584 294.055 377.066 269.016 368.892 257.386C367.848 255.9 368.963 253.745 370.752 254.052C384.611 256.433 405.723 265.412 408.026 288.027C410.994 317.174 390.268 327.537 379.053 329.832C377.652 330.119 376.561 328.766 376.958 327.391Z" fill="white"/>
<path d="M122.746 327.539C113.704 294.039 123.657 269.17 132.033 257.685C133.102 256.218 132.026 254.044 130.232 254.32C116.333 256.457 95.0675 265.067 92.3702 287.639C88.8937 316.73 109.436 327.452 120.609 329.943C122.005 330.254 123.119 328.92 122.746 327.539Z" fill="white"/>
<circle cx="470.05" cy="31.0137" r="30.1035" fill="white"/>
</svg>
